<svg id="svg" version="1.1" xmlns="http://www.w3.org/2000/svg" xmlns:xlink="http://www.w3.org/1999/xlink" width="400" height="475.72712850343737" viewBox="0, 0, 400,475.72712850343737"><g id="svgg"><path id="path0" d="M199.808 2.027 C 198.010 8.443,194.666 20.257,193.764 23.374 C 191.076 32.668,188.848 40.636,188.921 40.698 C 188.965 40.735,190.524 40.458,192.385 40.083 C 196.695 39.215,201.871 38.423,206.980 37.850 C 209.191 37.603,211.029 37.371,211.066 37.336 C 211.126 37.278,208.263 27.077,205.604 17.874 C 205.032 15.896,203.703 11.232,202.650 7.509 C 201.598 3.786,200.660 0.558,200.566 0.334 C 200.437 0.028,200.251 0.444,199.808 2.027 M0.340 1.111 C 0.534 1.489,1.522 3.273,2.537 5.077 C 4.261 8.139,7.648 14.198,8.982 16.605 C 9.304 17.187,9.779 18.043,10.037 18.509 C 10.295 18.974,11.842 21.739,13.474 24.653 C 15.107 27.566,16.774 30.565,17.180 31.316 C 17.586 32.067,18.727 34.109,19.716 35.854 C 20.705 37.599,22.562 40.931,23.842 43.258 C 25.122 45.584,27.293 49.487,28.665 51.930 C 30.037 54.373,31.632 57.229,32.208 58.276 C 32.784 59.323,33.465 60.561,33.722 61.026 C 33.979 61.491,34.621 62.634,35.149 63.564 C 35.677 64.495,36.423 65.828,36.806 66.526 C 37.189 67.224,37.932 68.556,38.458 69.487 C 38.983 70.418,39.858 71.988,40.401 72.977 C 41.441 74.872,41.779 75.475,43.893 79.217 C 45.017 81.208,47.573 85.823,49.164 88.736 C 49.584 89.505,52.340 94.443,57.958 104.495 C 59.096 106.531,60.290 108.673,60.611 109.254 C 60.931 109.836,61.624 111.074,62.149 112.004 C 62.674 112.935,63.574 114.553,64.149 115.600 C 65.554 118.162,66.050 119.049,68.281 123.004 L 70.191 126.388 74.281 128.683 C 80.164 131.984,80.296 132.058,82.390 133.212 C 83.437 133.789,86.388 135.433,88.948 136.866 C 91.507 138.299,93.982 139.681,94.447 139.938 C 94.913 140.194,96.721 141.190,98.466 142.152 C 100.212 143.113,103.067 144.709,104.812 145.698 C 106.557 146.688,108.461 147.758,109.043 148.077 C 113.860 150.717,116.995 152.459,120.254 154.305 C 122.348 155.491,124.823 156.875,125.754 157.380 C 126.684 157.885,129.397 159.392,131.782 160.728 C 136.644 163.453,136.601 163.429,140.984 165.843 C 142.729 166.804,145.584 168.400,147.329 169.389 C 149.075 170.379,150.978 171.449,151.560 171.768 C 156.073 174.242,159.321 176.044,161.396 177.225 C 162.734 177.987,164.209 178.819,164.675 179.074 C 167.232 180.474,171.653 182.933,174.722 184.661 C 176.642 185.742,178.689 186.888,179.270 187.208 C 179.852 187.528,181.756 188.574,183.501 189.533 C 186.725 191.306,192.163 194.358,193.125 194.935 C 194.805 195.943,196.140 196.529,196.015 196.205 C 195.943 196.017,194.801 193.939,193.478 191.586 C 192.155 189.233,190.472 186.214,189.739 184.876 C 189.006 183.538,188.183 182.088,187.910 181.654 C 187.637 181.221,187.414 180.816,187.414 180.755 C 187.414 180.694,186.856 179.669,186.173 178.477 C 185.491 177.284,184.672 175.833,184.354 175.251 C 183.315 173.352,180.419 168.159,177.572 163.088 C 176.036 160.354,174.234 157.118,173.566 155.896 C 171.802 152.667,171.393 151.931,169.217 148.070 C 168.135 146.150,166.280 142.819,165.094 140.666 C 163.909 138.514,161.816 134.754,160.444 132.311 C 159.071 129.868,157.477 127.012,156.900 125.965 C 156.323 124.918,155.638 123.681,155.378 123.215 C 155.119 122.750,153.497 119.847,151.774 116.764 C 150.052 113.681,148.384 110.682,148.068 110.100 C 147.751 109.519,146.607 107.472,145.526 105.553 C 144.444 103.633,142.589 100.301,141.403 98.149 C 140.218 95.997,138.125 92.237,136.753 89.794 C 135.380 87.351,133.785 84.495,133.208 83.448 C 130.238 78.056,126.250 70.978,126.036 70.718 C 125.924 70.580,124.101 69.493,121.985 68.301 C 117.962 66.035,117.629 65.849,114.543 64.146 C 113.496 63.568,110.545 61.922,107.985 60.490 C 105.426 59.057,102.951 57.674,102.485 57.418 C 102.020 57.162,100.212 56.165,98.466 55.204 C 96.721 54.243,93.866 52.647,92.121 51.658 C 90.375 50.668,88.472 49.598,87.890 49.279 C 83.073 46.639,79.937 44.897,76.679 43.051 C 74.585 41.865,72.110 40.481,71.179 39.976 C 70.249 39.471,67.536 37.964,65.151 36.628 C 60.289 33.903,60.331 33.927,55.949 31.513 C 54.204 30.552,51.348 28.956,49.603 27.967 C 47.858 26.977,45.955 25.907,45.373 25.588 C 40.859 23.114,37.611 21.312,35.537 20.131 C 34.199 19.369,32.723 18.537,32.258 18.282 C 29.701 16.881,25.279 14.423,22.210 12.695 C 20.291 11.614,18.244 10.468,17.663 10.148 C 11.536 6.778,9.927 5.885,7.827 4.689 C 6.489 3.927,5.013 3.094,4.548 2.837 C 2.001 1.430,0.129 0.423,0.064 0.423 C 0.023 0.423,0.147 0.732,0.340 1.111 M398.625 1.448 C 398.043 1.774,397.234 2.233,396.827 2.467 C 396.420 2.701,393.802 4.156,391.010 5.700 C 388.218 7.245,385.475 8.783,384.915 9.119 C 384.354 9.455,383.855 9.730,383.806 9.730 C 383.756 9.730,381.978 10.716,379.854 11.922 C 376.548 13.798,373.483 15.501,368.588 18.184 C 368.006 18.503,366.103 19.574,364.357 20.563 C 362.612 21.552,359.757 23.148,358.012 24.110 C 356.267 25.071,354.458 26.067,353.993 26.323 C 353.527 26.580,351.052 27.962,348.493 29.395 C 344.397 31.688,342.384 32.807,339.186 34.568 C 338.720 34.824,337.245 35.657,335.907 36.418 C 333.832 37.600,330.584 39.402,326.071 41.875 C 325.489 42.194,323.585 43.265,321.840 44.254 C 319.174 45.766,315.654 47.721,311.475 50.012 C 311.010 50.267,309.820 50.938,308.831 51.503 C 307.311 52.372,302.354 55.124,298.361 57.316 C 297.779 57.635,295.875 58.706,294.130 59.696 C 292.385 60.685,289.529 62.281,287.784 63.242 C 277.993 68.635,274.033 70.906,273.823 71.249 C 273.707 71.438,273.294 72.167,272.906 72.867 C 272.518 73.568,271.716 74.997,271.123 76.044 C 270.530 77.091,269.835 78.329,269.580 78.794 C 267.499 82.578,265.665 85.877,263.994 88.842 C 262.912 90.762,261.767 92.808,261.451 93.390 C 261.135 93.971,259.467 96.970,257.744 100.053 C 256.022 103.136,254.400 106.039,254.140 106.504 C 253.881 106.970,253.197 108.207,252.620 109.254 C 252.044 110.301,250.450 113.157,249.078 115.600 C 247.705 118.043,245.535 121.946,244.255 124.273 C 242.974 126.600,241.336 129.551,240.613 130.830 C 238.465 134.635,238.155 135.189,237.122 137.070 C 236.579 138.059,235.705 139.630,235.179 140.561 C 234.654 141.491,233.962 142.729,233.641 143.310 C 233.320 143.892,232.125 146.034,230.986 148.070 C 225.707 157.504,222.709 162.889,220.563 166.790 C 219.283 169.117,217.217 172.829,215.972 175.040 C 214.726 177.250,212.943 180.439,212.010 182.126 C 209.327 186.972,209.193 187.214,208.179 189.001 C 207.162 190.793,206.971 191.136,205.100 194.547 C 203.667 197.158,203.672 197.106,204.918 196.398 C 205.471 196.083,206.304 195.615,206.769 195.357 C 207.234 195.099,209.662 193.743,212.163 192.345 C 214.664 190.947,217.377 189.440,218.191 188.996 C 219.006 188.552,221.386 187.218,223.480 186.033 C 226.738 184.188,229.892 182.436,234.691 179.806 C 235.272 179.487,237.176 178.417,238.921 177.427 C 240.666 176.438,243.522 174.842,245.267 173.881 C 247.012 172.920,248.821 171.923,249.286 171.667 C 249.751 171.410,251.798 170.266,253.834 169.123 C 255.870 167.981,258.821 166.336,260.391 165.467 C 261.962 164.598,263.723 163.624,264.305 163.302 C 264.886 162.980,266.303 162.181,267.452 161.527 C 268.601 160.874,269.565 160.338,269.593 160.338 C 269.621 160.338,270.906 159.625,272.448 158.752 C 273.991 157.879,275.280 157.166,275.313 157.166 C 275.346 157.166,277.452 155.990,279.992 154.552 C 282.533 153.115,286.039 151.152,287.784 150.190 C 289.529 149.229,291.338 148.232,291.803 147.976 C 292.269 147.720,294.696 146.366,297.197 144.969 C 299.699 143.572,302.316 142.114,303.014 141.729 C 303.712 141.344,306.949 139.532,310.206 137.702 C 313.464 135.872,316.605 134.125,317.187 133.820 C 317.768 133.514,318.875 132.907,319.647 132.470 C 320.418 132.034,323.016 130.582,325.419 129.245 L 329.788 126.813 331.926 123.005 C 333.102 120.910,334.991 117.530,336.124 115.494 C 339.043 110.247,345.230 99.142,346.907 96.140 C 347.687 94.744,348.587 93.125,348.908 92.544 C 349.229 91.962,350.423 89.820,351.561 87.784 C 357.978 76.302,359.943 72.776,360.398 71.926 C 360.677 71.406,361.625 69.693,362.506 68.119 C 363.386 66.544,364.344 64.828,364.633 64.305 C 364.923 63.781,365.592 62.591,366.120 61.660 C 366.649 60.730,367.291 59.588,367.547 59.122 C 367.804 58.657,368.486 57.419,369.063 56.372 C 369.639 55.325,371.234 52.470,372.607 50.026 C 373.979 47.583,376.149 43.681,377.428 41.354 C 378.708 39.027,380.564 35.695,381.553 33.950 C 382.542 32.205,383.683 30.163,384.089 29.412 C 384.495 28.661,386.162 25.663,387.795 22.749 C 391.210 16.654,391.347 16.408,392.754 13.855 C 393.729 12.084,397.787 4.834,399.353 2.062 C 400.137 0.676,400.082 0.630,398.625 1.448 M200.238 198.995 C 199.594 201.206,197.583 208.274,195.768 214.701 C 194.536 219.064,193.061 224.252,192.489 226.230 C 191.918 228.207,190.442 233.395,189.209 237.758 C 187.976 242.121,186.596 246.975,186.142 248.546 C 185.204 251.791,179.779 270.886,176.738 281.650 C 175.620 285.605,174.333 290.127,173.878 291.698 C 173.423 293.268,172.043 298.123,170.812 302.485 C 169.581 306.848,168.106 312.036,167.533 314.014 C 166.961 315.992,165.486 321.179,164.255 325.542 C 163.024 329.905,161.776 334.269,161.481 335.240 L 160.947 337.006 163.089 344.547 C 164.267 348.695,166.609 356.943,168.294 362.877 C 169.978 368.810,171.728 374.950,172.182 376.520 C 172.635 378.091,174.016 382.946,175.250 387.308 C 176.483 391.671,177.961 396.859,178.533 398.837 C 179.105 400.814,180.581 406.002,181.814 410.365 C 185.151 422.180,190.042 439.384,191.225 443.469 C 191.798 445.447,193.274 450.635,194.506 454.997 C 197.890 466.985,200.359 475.614,200.426 475.688 C 200.522 475.795,201.168 473.584,205.079 459.757 C 206.428 454.987,207.903 449.799,208.357 448.228 C 209.267 445.084,214.047 428.255,217.550 415.865 C 218.784 411.502,220.261 406.314,220.833 404.336 C 221.405 402.359,222.882 397.171,224.116 392.808 C 225.349 388.445,226.730 383.591,227.184 382.020 C 228.039 379.062,232.469 363.466,236.377 349.656 C 237.611 345.293,238.916 340.699,239.276 339.445 L 239.931 337.166 239.359 335.003 C 239.044 333.813,238.465 331.745,238.070 330.407 C 237.676 329.069,236.345 324.405,235.113 320.042 C 233.880 315.680,232.404 310.492,231.833 308.514 C 231.261 306.536,229.881 301.682,228.767 297.726 C 227.653 293.770,226.272 288.916,225.699 286.938 C 225.126 284.960,223.743 280.106,222.626 276.150 C 221.509 272.195,219.119 263.770,217.316 257.430 C 215.512 251.089,212.658 241.047,210.974 235.114 C 209.289 229.180,207.443 222.708,206.872 220.730 C 205.343 215.439,201.460 201.705,201.027 200.053 C 200.647 198.608,200.434 198.322,200.238 198.995 " stroke="none" fill="#fcf304" fill-rule="evenodd"></path><path id="path1" d="M186.568 64.379 C 186.568 64.514,187.087 66.472,187.722 68.731 C 188.356 70.990,188.831 72.909,188.778 72.995 C 188.724 73.082,188.770 73.185,188.879 73.224 C 188.988 73.263,189.107 73.580,189.144 73.929 C 189.182 74.278,189.276 74.613,189.355 74.672 C 189.433 74.732,189.529 75.065,189.566 75.413 C 189.604 75.760,189.699 76.093,189.778 76.153 C 189.856 76.212,189.952 76.546,189.989 76.893 C 190.027 77.241,190.122 77.574,190.201 77.634 C 190.279 77.693,190.375 78.026,190.412 78.374 C 190.450 78.721,190.545 79.055,190.624 79.114 C 190.703 79.174,190.798 79.507,190.836 79.855 C 190.873 80.202,190.969 80.535,191.047 80.595 C 191.126 80.655,191.221 80.988,191.259 81.335 C 191.296 81.683,191.382 82.015,191.450 82.073 C 191.603 82.205,194.803 93.525,194.872 94.180 C 194.900 94.443,194.988 94.708,195.066 94.767 C 195.145 94.827,195.240 95.160,195.278 95.508 C 195.315 95.855,195.411 96.188,195.489 96.248 C 195.568 96.308,195.663 96.641,195.701 96.988 C 195.738 97.336,195.834 97.669,195.912 97.729 C 195.991 97.788,196.086 98.122,196.124 98.469 C 196.162 98.817,196.257 99.150,196.335 99.209 C 196.414 99.269,196.509 99.602,196.547 99.950 C 196.585 100.297,196.680 100.630,196.758 100.690 C 196.837 100.750,196.932 101.083,196.970 101.430 C 197.008 101.778,197.103 102.111,197.181 102.171 C 197.260 102.230,197.355 102.564,197.393 102.911 C 197.431 103.259,197.515 103.591,197.581 103.649 C 197.646 103.707,198.173 105.420,198.750 107.456 L 199.801 111.158 200.460 111.223 C 201.089 111.284,201.131 111.239,201.392 110.218 C 201.543 109.630,201.720 109.148,201.785 109.148 C 201.850 109.148,201.925 108.846,201.951 108.477 C 201.977 108.108,202.072 107.751,202.163 107.684 C 202.253 107.617,202.358 107.278,202.396 106.930 C 202.433 106.583,202.529 106.250,202.607 106.190 C 202.686 106.130,202.781 105.797,202.819 105.450 C 202.856 105.102,202.952 104.769,203.030 104.709 C 203.109 104.650,203.204 104.316,203.242 103.969 C 203.280 103.621,203.375 103.288,203.453 103.228 C 203.532 103.169,203.627 102.836,203.665 102.488 C 203.703 102.141,203.798 101.807,203.876 101.748 C 203.955 101.688,204.050 101.355,204.088 101.007 C 204.126 100.660,204.221 100.327,204.299 100.267 C 204.378 100.207,204.465 99.943,204.493 99.680 C 204.563 99.025,207.763 87.705,207.916 87.573 C 207.983 87.515,208.069 87.183,208.107 86.835 C 208.145 86.487,208.240 86.154,208.318 86.095 C 208.397 86.035,208.492 85.702,208.530 85.354 C 208.568 85.007,208.663 84.674,208.741 84.614 C 208.820 84.554,208.915 84.221,208.953 83.874 C 208.991 83.526,209.086 83.193,209.164 83.133 C 209.243 83.074,209.338 82.740,209.376 82.393 C 209.414 82.045,209.509 81.712,209.588 81.653 C 209.666 81.593,209.761 81.260,209.799 80.912 C 209.837 80.565,209.932 80.232,210.011 80.172 C 210.089 80.112,210.184 79.779,210.222 79.432 C 210.260 79.084,210.355 78.751,210.434 78.691 C 210.512 78.632,210.592 78.400,210.612 78.178 C 210.631 77.955,211.381 75.167,212.279 71.983 C 213.176 68.799,213.850 66.133,213.777 66.060 C 213.025 65.308,186.568 63.673,186.568 64.379 " stroke="none" fill="#f88c0c" fill-rule="evenodd"></path><path id="path2" d="M206.029 38.081 C 201.726 38.589,196.591 39.396,192.329 40.234 L 188.888 40.910 188.663 41.767 C 188.539 42.238,188.171 43.432,187.846 44.421 C 187.521 45.410,187.136 46.647,186.991 47.171 C 186.846 47.694,186.556 48.694,186.346 49.392 C 184.368 55.971,184.197 56.725,184.458 57.729 C 185.501 61.742,186.893 66.254,186.639 64.800 L 186.523 64.131 189.983 64.225 C 201.067 64.526,213.450 65.552,213.852 66.204 C 213.961 66.380,214.133 66.074,214.339 65.337 C 214.514 64.711,215.106 62.604,215.654 60.655 C 216.423 57.922,216.619 56.930,216.507 56.319 C 216.379 55.614,214.999 50.626,214.474 48.969 C 214.170 48.008,212.767 43.133,212.587 42.411 C 212.500 42.062,212.325 41.539,212.199 41.248 C 212.072 40.957,211.770 40.029,211.528 39.186 L 211.087 37.652 210.197 37.673 C 209.708 37.685,207.832 37.868,206.029 38.081 " stroke="none" fill="#fa9f3c" fill-rule="evenodd"></path><path id="path3" d="M210.682 37.595 C 210.857 37.661,211.069 37.820,211.155 37.948 C 211.251 38.092,211.312 38.039,211.314 37.811 C 211.316 37.562,211.161 37.446,210.841 37.457 C 210.523 37.468,210.470 37.514,210.682 37.595 M200.423 111.264 L 199.577 111.415 200.358 111.445 C 200.787 111.462,201.197 111.380,201.269 111.264 C 201.341 111.148,201.370 111.066,201.335 111.082 C 201.299 111.099,200.888 111.181,200.423 111.264 " stroke="none" fill="#fcc03e" fill-rule="evenodd"></path><path id="path4" d="" stroke="none" fill="#fce420" fill-rule="evenodd"></path></g></svg>