<svg xmlns="http://www.w3.org/2000/svg" xmlns:xlink="http://www.w3.org/1999/xlink" width="428" height="926" viewBox="0 0 428 926">
  <defs>
    <clipPath id="clip-iPhone_12_Pro_Max_1">
      <rect width="428" height="926"/>
    </clipPath>
  </defs>
  <g id="iPhone_12_Pro_Max_1" data-name="iPhone 12 Pro Max – 1" clip-path="url(#clip-iPhone_12_Pro_Max_1)">
    <rect width="428" height="926" fill="#fff"/>
    <rect id="Rectangle_3" data-name="Rectangle 3" width="428" height="926" fill="#27272a"/>
    <g id="Group_1" data-name="Group 1" transform="translate(151.087 168.356) rotate(-179)">
      <rect id="Rectangle_1" data-name="Rectangle 1" width="179" height="174" rx="30" transform="translate(-8.131 -67.537) rotate(47)" fill="#27272a"/>
      <path id="Rectangle_1_-_Outline" data-name="Rectangle 1 - Outline" d="M30,2A27.975,27.975,0,0,0,2,30V144a27.975,27.975,0,0,0,28,28H149a27.975,27.975,0,0,0,28-28V30A27.975,27.975,0,0,0,149,2H30m0-2H149a30,30,0,0,1,30,30V144a30,30,0,0,1-30,30H30A30,30,0,0,1,0,144V30A30,30,0,0,1,30,0Z" transform="translate(-8.131 -67.537) rotate(47)" fill="#facc15"/>
      <rect id="Rectangle_2" data-name="Rectangle 2" width="179" height="174" rx="30" transform="translate(91.922 -89) rotate(47)" fill="#27272a"/>
      <path id="Rectangle_2_-_Outline" data-name="Rectangle 2 - Outline" d="M30,2A27.975,27.975,0,0,0,2,30V144a27.975,27.975,0,0,0,28,28H149a27.975,27.975,0,0,0,28-28V30A27.975,27.975,0,0,0,149,2H30m0-2H149a30,30,0,0,1,30,30V144a30,30,0,0,1-30,30H30A30,30,0,0,1,0,144V30A30,30,0,0,1,30,0Z" transform="translate(91.922 -89) rotate(47)" fill="#facc15"/>
      <path id="Rectangle_4" data-name="Rectangle 4" d="M30,2A27.975,27.975,0,0,0,2,30V144a27.975,27.975,0,0,0,28,28H149a27.975,27.975,0,0,0,28-28V30A27.975,27.975,0,0,0,149,2H30m0-2H149a30,30,0,0,1,30,30V144a30,30,0,0,1-30,30H30A30,30,0,0,1,0,144V30A30,30,0,0,1,30,0Z" transform="translate(57.202 35.79) rotate(47)" fill="#facc15"/>
    </g>
    <g id="Group_2" data-name="Group 2" transform="translate(271.887 752)">
      <rect id="Rectangle_1-2" data-name="Rectangle 1" width="179" height="174" rx="30" transform="translate(-8.131 -67.537) rotate(47)" fill="#27272a"/>
      <path id="Rectangle_1_-_Outline-2" data-name="Rectangle 1 - Outline" d="M30,2A27.975,27.975,0,0,0,2,30V144a27.975,27.975,0,0,0,28,28H149a27.975,27.975,0,0,0,28-28V30A27.975,27.975,0,0,0,149,2H30m0-2H149a30,30,0,0,1,30,30V144a30,30,0,0,1-30,30H30A30,30,0,0,1,0,144V30A30,30,0,0,1,30,0Z" transform="translate(-8.131 -67.537) rotate(47)" fill="#facc15"/>
      <rect id="Rectangle_2-2" data-name="Rectangle 2" width="179" height="174" rx="30" transform="translate(91.922 -89) rotate(47)" fill="#27272a"/>
      <path id="Rectangle_2_-_Outline-2" data-name="Rectangle 2 - Outline" d="M30,2A27.975,27.975,0,0,0,2,30V144a27.975,27.975,0,0,0,28,28H149a27.975,27.975,0,0,0,28-28V30A27.975,27.975,0,0,0,149,2H30m0-2H149a30,30,0,0,1,30,30V144a30,30,0,0,1-30,30H30A30,30,0,0,1,0,144V30A30,30,0,0,1,30,0Z" transform="translate(91.922 -89) rotate(47)" fill="#facc15"/>
      <path id="Path_1" data-name="Path 1" d="M30,2A27.975,27.975,0,0,0,2,30V144a27.975,27.975,0,0,0,28,28H149a27.975,27.975,0,0,0,28-28V30A27.975,27.975,0,0,0,149,2H30m0-2H149a30,30,0,0,1,30,30V144a30,30,0,0,1-30,30H30A30,30,0,0,1,0,144V30A30,30,0,0,1,30,0Z" transform="translate(57.202 35.79) rotate(47)" fill="#facc15"/>
    </g>
    <g id="Group_7" data-name="Group 7">
      <text id="ANIMEY" transform="translate(83 476)" fill="#27272a" font-size="70" font-family="OratorStd, Orator Std" letter-spacing="0.03em"><tspan x="0" y="0">A</tspan><tspan y="0" fill="#e4bb16">NIME</tspan><tspan y="0">Y</tspan></text>
      <path id="ANIMEY_-_Outline" data-name="ANIMEY - Outline" d="M30.643,1.528,26.975-13.92H15.025L11.357,1.528,5.764,0,17.812-47.19h6.377L36.236,0ZM14.235-14.92h13.53L31.377.292,35.024-.7,23.412-46.19H18.588L6.976-.7l3.647.995ZM244.31.5h-5.69V-18.305l-12.2-27.816,5.273-2.126,9.812,23.1,9.812-23.1,5.274,2.127L244.31-18.3Zm-4.69-1h3.69V-18.515l.043-.1,11.9-26.968-3.406-1.373L241.5-22.591,231.152-46.953l-3.407,1.374L239.62-18.515ZM210.64.5H186.89V-47.19h23.75v5.2H192.58v14.4h14.91v5.2H192.58V-4.7h18.06Zm-22.75-1h21.75V-3.7H191.58V-23.39h14.91v-3.2H191.58v-16.4h18.06v-3.2H187.89ZM167.815.5h-5.974l-.865-36.977L153.3-13.918l-7.677-22.559L144.758.5h-5.9l1.43-47.69h6.654L153.3-28.436l6.362-18.754h6.724Zm-5-1h3.966l-1.37-45.69h-5.036L153.3-25.324,146.222-46.19h-4.966L139.885-.5h3.9l.91-38.92h.986l7.622,22.4,7.622-22.4h.986ZM118.38.5H100.02V-4.7h6.3V-41.99h-6.3v-5.2h18.36v5.2h-6.37V-4.7h6.37Zm-17.36-1h16.36V-3.7h-6.37V-42.99h6.37v-3.2H101.02v3.2h6.3V-3.7h-6.3ZM77.78.5H71.046L57.95-36.671l.16,8.041V.5H52.42V-47.19h6.734l13.1,37.1-.159-7.9v-29.2h5.69Zm-6.026-1H76.78V-46.19H73.09V-18L73.3-7.357l-.852.852L58.446-46.19H53.42V-.5h3.69V-28.625L56.9-39.4l.852-.852ZM26.882-18.12H15.118l5.417-22.84h.931Zm-10.5-1h9.235L21-38.589Z" transform="translate(83 476)" fill="#eec215"/>
    </g>
    <g id="Group_3" data-name="Group 3" transform="translate(5 3.5)">
      <path id="Line_1" data-name="Line 1" d="M0,55.5a1,1,0,0,1-.619-.215,1,1,0,0,1-.166-1.4l43-54.5a1,1,0,0,1,1.4-.166,1,1,0,0,1,.166,1.4l-43,54.5A1,1,0,0,1,0,55.5Z" transform="translate(316.5 456.5)" fill="#e4bb16"/>
      <path id="Line_2" data-name="Line 2" d="M0,96.5a1,1,0,0,1-.627-.222,1,1,0,0,1-.151-1.406l77-95.5a1,1,0,0,1,1.406-.151A1,1,0,0,1,77.778.628l-77,95.5A1,1,0,0,1,0,96.5Z" transform="translate(321 424.5)" fill="#e4bb16"/>
    </g>
    <g id="Group_4" data-name="Group 4" transform="translate(35.25 367.5)">
      <path id="Line_1-2" data-name="Line 1" d="M0,55.5a1,1,0,0,1-.619-.215,1,1,0,0,1-.166-1.4l43-54.5a1,1,0,0,1,1.4-.166,1,1,0,0,1,.166,1.4l-43,54.5A1,1,0,0,1,0,55.5Z" transform="translate(38.5 9)" fill="#e4bb16"/>
      <path id="Line_2-2" data-name="Line 2" d="M0,96.5a1,1,0,0,1-.627-.222,1,1,0,0,1-.151-1.406l77-95.5a1,1,0,0,1,1.406-.151A1,1,0,0,1,77.778.628l-77,95.5A1,1,0,0,1,0,96.5Z" fill="#e4bb16"/>
    </g>
    <g id="Group_5" data-name="Group 5">
      <rect id="Rectangle_7" data-name="Rectangle 7" width="87" height="87" rx="20" transform="translate(322 12)" fill="#504e4e" opacity="0.23"/>
      <rect id="Rectangle_13" data-name="Rectangle 13" width="58" height="58" rx="20" transform="translate(255 27)" fill="#504e4e" opacity="0.23"/>
      <rect id="Rectangle_5" data-name="Rectangle 5" width="65" height="65" rx="20" transform="translate(284 106)" fill="#504e4e" opacity="0.23"/>
      <rect id="Rectangle_6" data-name="Rectangle 6" width="53" height="53" rx="20" transform="translate(361 112)" fill="#504e4e" opacity="0.23"/>
    </g>
    <g id="Group_6" data-name="Group 6" transform="translate(419.046 922.148) rotate(179)">
      <rect id="Rectangle_7-2" data-name="Rectangle 7" width="87" height="87" rx="20" transform="translate(322 12)" fill="#504e4e" opacity="0.23"/>
      <rect id="Rectangle_13-2" data-name="Rectangle 13" width="58" height="58" rx="20" transform="translate(255 27)" fill="#504e4e" opacity="0.23"/>
      <rect id="Rectangle_5-2" data-name="Rectangle 5" width="65" height="65" rx="20" transform="translate(284 106)" fill="#504e4e" opacity="0.23"/>
      <rect id="Rectangle_6-2" data-name="Rectangle 6" width="53" height="53" rx="20" transform="translate(361 112)" fill="#504e4e" opacity="0.23"/>
    </g>
  </g>
</svg>
